<?xml version="1.0" encoding="UTF-8" standalone="no"?>
<svg
   width="588"
   zoomAndPan="magnify"
   viewBox="0 0 441 144"
   height="192"
   preserveAspectRatio="xMidYMid"
   version="1.0"
   id="svg30"
   sodipodi:docname="drop-in-rec-inkscape.svg"
   inkscape:version="1.4.2 (f4327f4, 2025-05-13)"
   xmlns:inkscape="http://www.inkscape.org/namespaces/inkscape"
   xmlns:sodipodi="http://sodipodi.sourceforge.net/DTD/sodipodi-0.dtd"
   xmlns="http://www.w3.org/2000/svg"
   xmlns:svg="http://www.w3.org/2000/svg">
  <sodipodi:namedview
     id="namedview30"
     pagecolor="#ffffff"
     bordercolor="#000000"
     borderopacity="0.25"
     inkscape:showpageshadow="2"
     inkscape:pageopacity="0.0"
     inkscape:pagecheckerboard="0"
     inkscape:deskcolor="#d1d1d1"
     inkscape:zoom="0.89657738"
     inkscape:cx="250.39668"
     inkscape:cy="607.30955"
     inkscape:window-width="2560"
     inkscape:window-height="1369"
     inkscape:window-x="-8"
     inkscape:window-y="-8"
     inkscape:window-maximized="1"
     inkscape:current-layer="svg30" />
  <defs
     id="defs12">
    <clipPath
       id="ee99ce914c">
      <path
         d="m 31.5,0 h 144 v 144 h -144 z m 0,0"
         clip-rule="nonzero"
         id="path1" />
    </clipPath>
    <clipPath
       id="12e0999432">
      <path
         d="m 103.5,0 c -39.765625,0 -72,32.234375 -72,72 0,39.76563 32.234375,72 72,72 39.76562,0 72,-32.23437 72,-72 0,-39.765625 -32.23438,-72 -72,-72 z m 0,0"
         clip-rule="nonzero"
         id="path2" />
    </clipPath>
    <clipPath
       id="ff1767cd20">
      <path
         d="m 0.5,0 h 144 V 144 H 0.5 Z m 0,0"
         clip-rule="nonzero"
         id="path3" />
    </clipPath>
    <clipPath
       id="68775b27e6">
      <path
         d="m 72.5,0 c -39.765625,0 -72,32.234375 -72,72 0,39.76563 32.234375,72 72,72 39.76563,0 72,-32.23437 72,-72 0,-39.765625 -32.23437,-72 -72,-72 z m 0,0"
         clip-rule="nonzero"
         id="path4" />
    </clipPath>
    <clipPath
       id="967b1ca997">
      <rect
         x="0"
         width="145"
         y="0"
         height="144"
         id="rect4" />
    </clipPath>
    <clipPath
       id="6344cb8a01">
      <path
         d="M 180,0 H 324 V 144 H 180 Z m 0,0"
         clip-rule="nonzero"
         id="path5" />
    </clipPath>
    <clipPath
       id="2db6a0abd6">
      <path
         d="m 252,0 c -39.76563,0 -72,32.234375 -72,72 0,39.76563 32.23437,72 72,72 39.76562,0 72,-32.23437 72,-72 C 324,32.234375 291.76562,0 252,0 Z m 0,0"
         clip-rule="nonzero"
         id="path6" />
    </clipPath>
    <clipPath
       id="ee8444bc07">
      <path
         d="M 0,0 H 144 V 144 H 0 Z m 0,0"
         clip-rule="nonzero"
         id="path7" />
    </clipPath>
    <clipPath
       id="3c0a2ecd82">
      <path
         d="M 72,0 C 32.234375,0 0,32.234375 0,72 c 0,39.76563 32.234375,72 72,72 39.76563,0 72,-32.23437 72,-72 C 144,32.234375 111.76563,0 72,0 Z m 0,0"
         clip-rule="nonzero"
         id="path8" />
    </clipPath>
    <clipPath
       id="886ba6cf62">
      <rect
         x="0"
         width="144"
         y="0"
         height="144"
         id="rect8" />
    </clipPath>
    <clipPath
       id="2cfd04c7da">
      <path
         d="m 328.5,0 h 144 v 144 h -144 z m 0,0"
         clip-rule="nonzero"
         id="path9" />
    </clipPath>
    <clipPath
       id="9b60b8b4a2">
      <path
         d="m 400.5,0 c -39.76563,0 -72,32.234375 -72,72 0,39.76563 32.23437,72 72,72 39.76562,0 72,-32.23437 72,-72 0,-39.765625 -32.23438,-72 -72,-72 z m 0,0"
         clip-rule="nonzero"
         id="path10" />
    </clipPath>
    <clipPath
       id="5d130f6bbb">
      <path
         d="m 0.5,0 h 144 V 144 H 0.5 Z m 0,0"
         clip-rule="nonzero"
         id="path11" />
    </clipPath>
    <clipPath
       id="2b5599abba">
      <path
         d="m 72.5,0 c -39.765625,0 -72,32.234375 -72,72 0,39.76563 32.234375,72 72,72 39.76563,0 72,-32.23437 72,-72 0,-39.765625 -32.23437,-72 -72,-72 z m 0,0"
         clip-rule="nonzero"
         id="path12" />
    </clipPath>
    <clipPath
       id="a27b9fb08d">
      <rect
         x="0"
         width="145"
         y="0"
         height="144"
         id="rect12" />
    </clipPath>
  </defs>
  <g
     clip-path="url(#ee99ce914c)"
     id="g18"
     transform="translate(-31.5)">
    <g
       clip-path="url(#12e0999432)"
       id="g17">
      <g
         transform="translate(31)"
         id="g16">
        <g
           clip-path="url(#967b1ca997)"
           id="g15">
          <g
             clip-path="url(#ff1767cd20)"
             id="g14">
            <g
               clip-path="url(#68775b27e6)"
               id="g13">
              <path
                 fill="#13a4ec"
                 d="m 0.5,0 h 144 V 144 H 0.5 Z m 0,0"
                 fill-opacity="1"
                 fill-rule="nonzero"
                 id="path13" />
            </g>
          </g>
        </g>
      </g>
      <path
         stroke-linecap="butt"
         transform="matrix(0.75,0,0,0.75,31.500003,2e-6)"
         fill="none"
         stroke-linejoin="miter"
         d="M 96.000002,-2.66667e-6 C 42.979166,-2.66667e-6 -3.35417e-6,42.979167 -3.35417e-6,96.000003 c 0,53.020837 42.97916935417,96.000007 96.00000535417,96.000007 53.020838,0 96.000008,-42.97917 96.000008,-96.000007 0,-53.020836 -42.97917,-96.00000566667 -96.000008,-96.00000566667 z m 0,0"
         stroke="#13a4ec"
         stroke-width="18"
         stroke-opacity="1"
         stroke-miterlimit="4"
         id="path16" />
    </g>
  </g>
  <path
     fill="#ffffff"
     d="M 79.27734,123.48438 71.99609,116.20313 90.46094,97.738281 46.253906,53.535156 27.789062,71.996094 l -7.277343,-7.28125 7.277343,-7.539063 -7.277343,-7.28125 10.917969,-10.921875 -7.277344,-7.542968 7.277344,-7.277344 7.542968,7.277344 10.921875,-10.917969 7.28125,7.28125 7.539063,-7.28125 7.281246,7.28125 -18.460934,18.460937 44.203124,44.207032 18.46484,-18.464844 7.28125,7.28125 -7.28125,7.542968 7.28125,7.28125 -10.92187,10.917968 7.28125,7.54297 -7.28125,7.28125 -7.54297,-7.28125 -10.91797,10.92188 -7.28125,-7.28125 z m 0,0"
     fill-opacity="1"
     fill-rule="nonzero"
     id="path18" />
  <g
     clip-path="url(#6344cb8a01)"
     id="g24"
     transform="translate(-31.5)">
    <g
       clip-path="url(#2db6a0abd6)"
       id="g23">
      <g
         transform="translate(180)"
         id="g22">
        <g
           clip-path="url(#886ba6cf62)"
           id="g21">
          <g
             clip-path="url(#ee8444bc07)"
             id="g20">
            <g
               clip-path="url(#3c0a2ecd82)"
               id="g19">
              <rect
                 x="-290.88"
                 width="725.76001"
                 fill="#13a4ec"
                 height="207.36"
                 y="-31.679998"
                 fill-opacity="1"
                 id="rect18" />
            </g>
          </g>
        </g>
      </g>
      <path
         stroke-linecap="butt"
         transform="matrix(0.75,0,0,0.75,179.99999,2e-6)"
         fill="none"
         stroke-linejoin="miter"
         d="M 96.000014,-2.66667e-6 C 42.979178,-2.66667e-6 8.33333e-6,42.979167 8.33333e-6,96.000003 8.33333e-6,149.02084 42.979178,192.00001 96.000014,192.00001 c 53.020836,0 96.000006,-42.97917 96.000006,-96.000007 0,-53.020836 -42.97917,-96.00000566667 -96.000006,-96.00000566667 z m 0,0"
         stroke="#13a4ec"
         stroke-width="18"
         stroke-opacity="1"
         stroke-miterlimit="4"
         id="path22" />
    </g>
  </g>
  <path
     fill="#ffffff"
     d="m 168.48828,118.80469 v -10.40235 c 3.29688,0 5.76563,-0.86718 7.41406,-2.60156 1.64453,-1.73437 4.89453,-2.60156 9.75,-2.60156 4.85547,0 8.19141,0.86719 10.01172,2.60156 1.82031,1.73438 4.28906,2.60156 7.41016,2.60156 3.12109,0 5.58984,-0.86718 7.41015,-2.60156 1.82032,-1.73437 5.16016,-2.60156 10.01172,-2.60156 4.85547,0 8.19141,0.86719 10.01172,2.60156 1.82031,1.73438 4.28906,2.60156 7.41016,2.60156 3.12109,0 5.59375,-0.86718 7.41015,-2.60156 1.82032,-1.73437 5.16016,-2.60156 10.01172,-2.60156 4.85547,0 8.10547,0.86719 9.75391,2.60156 1.64453,1.73438 4.11719,2.60156 7.41016,2.60156 v 10.40235 c -5.11329,0 -8.47266,-0.86719 -10.07813,-2.60156 -1.60156,-1.73438 -3.96484,-2.60157 -7.08594,-2.60157 -3.11718,0 -5.58984,0.86719 -7.41015,2.60157 -1.82032,1.73437 -5.15625,2.60156 -10.01172,2.60156 -4.85156,0 -8.19141,-0.86719 -10.01172,-2.60156 -1.82031,-1.73438 -4.28906,-2.60157 -7.41016,-2.60157 -3.12109,0 -5.58984,0.86719 -7.41015,2.60157 -1.82032,1.73437 -5.15625,2.60156 -10.01172,2.60156 -4.85547,0 -8.19141,-0.86719 -10.01172,-2.60156 -1.82031,-1.73438 -4.28906,-2.60157 -7.41016,-2.60157 -3.12109,0 -5.48437,0.86719 -7.08593,2.60157 -1.60547,1.73437 -4.96094,2.60156 -10.07813,2.60156 z m 0,-23.406252 V 85 c 3.29688,0 5.76563,-0.867188 7.41406,-2.601562 1.64453,-1.734376 4.89453,-2.601563 9.75,-2.601563 4.85547,0 8.21094,0.867187 10.07813,2.601563 C 197.59375,84.132812 200.03906,85 203.07422,85 c 3.12109,0 5.58984,-0.867188 7.41015,-2.601562 1.82032,-1.734376 5.16016,-2.601563 10.01172,-2.601563 4.85547,0 8.19141,0.867187 10.01172,2.601563 C 232.32812,84.132812 234.79687,85 237.91797,85 c 3.12109,0 5.59375,-0.867188 7.41015,-2.601562 1.82032,-1.734376 5.16016,-2.601563 10.01172,-2.601563 4.85547,0 8.10547,0.867187 9.75391,2.601563 C 266.73828,84.132812 269.21094,85 272.50391,85 v 10.398438 c -5.11329,0 -8.47266,-0.867188 -10.07813,-2.597657 -1.60156,-1.734375 -3.96484,-2.601562 -7.08594,-2.601562 -3.11718,0 -5.52343,0.867187 -7.21484,2.601562 -1.69141,1.730469 -5.09375,2.597657 -10.20703,2.597657 -4.94141,0 -8.29688,-0.867188 -10.07422,-2.597657 -1.77734,-1.734375 -4.22656,-2.601562 -7.34766,-2.601562 -3.29297,0 -5.74218,0.867187 -7.34375,2.601562 -1.60547,1.730469 -4.96484,2.597657 -10.07812,2.597657 -5.11328,0 -8.51563,-0.867188 -10.20703,-2.597657 -1.6875,-1.734375 -4.09375,-2.601562 -7.21485,-2.601562 -3.12109,0 -5.48437,0.867187 -7.08593,2.601562 -1.60547,1.730469 -4.96094,2.597657 -10.07813,2.597657 z M 193.97266,68.875 211.26562,51.585938 206.06641,46.382812 c -2.86329,-2.859374 -5.89454,-4.941406 -9.10157,-6.238281 -3.20703,-1.300781 -7.15234,-1.953125 -11.83203,-1.953125 v -13 c 6.5,0 11.875,0.714844 16.1211,2.144532 4.24609,1.429687 8.40625,4.183593 12.48046,8.257812 L 247.01953,68.875 c -1.47266,0.953125 -2.90234,1.714844 -4.28906,2.277344 -1.38672,0.5625 -2.99219,0.84375 -4.8125,0.84375 -3.1211,0 -5.58985,-0.867188 -7.41016,-2.601563 -1.82031,-1.730469 -5.15625,-2.597656 -10.01172,-2.597656 -4.85156,0 -8.1914,0.867187 -10.01172,2.597656 -1.82031,1.734375 -4.28906,2.601563 -7.41015,2.601563 -1.82031,0 -3.42188,-0.28125 -4.8086,-0.84375 -1.38671,-0.5625 -2.82031,-1.324219 -4.29296,-2.277344 z m 50.96875,-43.683594 c 3.64062,0 6.71484,1.277344 9.23046,3.835938 2.51172,2.554687 3.76954,5.609375 3.76954,9.164062 0,3.640625 -1.25782,6.71875 -3.76954,9.230469 -2.51562,2.515625 -5.58984,3.773437 -9.23046,3.773437 -3.64063,0 -6.71875,-1.257812 -9.23438,-3.773437 -2.51172,-2.511719 -3.76953,-5.589844 -3.76953,-9.230469 0,-3.554687 1.25781,-6.609375 3.76953,-9.164062 2.51563,-2.558594 5.59375,-3.835938 9.23438,-3.835938 z m 0,0"
     fill-opacity="1"
     fill-rule="nonzero"
     id="path24" />
  <g
     clip-path="url(#2cfd04c7da)"
     id="g30"
     transform="translate(-31.5)">
    <g
       clip-path="url(#9b60b8b4a2)"
       id="g29">
      <g
         transform="translate(328)"
         id="g28">
        <g
           clip-path="url(#a27b9fb08d)"
           id="g27">
          <g
             clip-path="url(#5d130f6bbb)"
             id="g26">
            <g
               clip-path="url(#2b5599abba)"
               id="g25">
              <path
                 fill="#13a4ec"
                 d="m 0.5,0 h 144 V 144 H 0.5 Z m 0,0"
                 fill-opacity="1"
                 fill-rule="nonzero"
                 id="path25" />
            </g>
          </g>
        </g>
      </g>
      <path
         stroke-linecap="butt"
         transform="matrix(0.75,0,0,0.75,328.49998,2e-6)"
         fill="none"
         stroke-linejoin="miter"
         d="M 96.000026,-2.66667e-6 C 42.979189,-2.66667e-6 2.00208e-5,42.979167 2.00208e-5,96.000003 c 0,53.020837 42.9791689792,96.000007 96.0000059792,96.000007 53.020834,0 96.000004,-42.97917 96.000004,-96.000007 0,-53.020836 -42.97917,-96.00000566667 -96.000004,-96.00000566667 z m 0,0"
         stroke="#13a4ec"
         stroke-width="18"
         stroke-opacity="1"
         stroke-miterlimit="4"
         id="path28" />
    </g>
  </g>
  <path
     fill="#ffffff"
     d="m 340.42187,84.867188 c 1.64454,1.648437 3.46485,2.863281 5.45704,3.640624 1.99609,0.78125 4.07421,1.171876 6.24218,1.171876 2.16797,0 4.2461,-0.390626 6.24219,-1.171876 1.99219,-0.777343 3.8125,-1.992187 5.46094,-3.640624 l 4.67969,-4.679688 c 1.64843,-1.644531 2.85937,-3.464844 3.64062,-5.460938 0.78125,-1.992187 1.16797,-4.074218 1.16797,-6.238281 0,-2.167969 -0.38672,-4.226562 -1.16797,-6.175781 -0.78125,-1.953125 -1.99219,-3.75 -3.64062,-5.398438 L 348.74219,37.152344 c -1.04297,-1.039063 -2.27735,-1.558594 -3.70703,-1.558594 -1.42969,0 -2.66407,0.519531 -3.70704,1.558594 l -20.53906,20.671875 c -1.04297,1.039062 -1.5625,2.253906 -1.5625,3.640625 0,1.386718 0.51953,2.601562 1.5625,3.640625 z m 59.80469,39.136722 -30.55469,-30.554691 c -2.51171,2.253906 -5.30859,3.902343 -8.38281,4.941406 -3.07812,1.039063 -6.17578,1.558594 -9.29687,1.558594 -3.46875,0 -6.82813,-0.648438 -10.07813,-1.949219 -3.25,-1.300781 -6.17578,-3.25 -8.77344,-5.851562 L 313.375,72.515625 c -1.47266,-1.472656 -2.59766,-3.183594 -3.37891,-5.132813 -0.78125,-1.953124 -1.17187,-3.921874 -1.17187,-5.917968 0,-1.992188 0.39062,-3.964844 1.17187,-5.914063 0.78125,-1.953125 1.90625,-3.664062 3.37891,-5.136719 l 20.67578,-20.671874 c 1.47266,-1.472657 3.18359,-2.601563 5.13281,-3.382813 1.95313,-0.777344 3.92188,-1.167969 5.91797,-1.167969 1.99219,0 3.96485,0.390625 5.91406,1.167969 1.94922,0.78125 3.66407,1.910156 5.13672,3.382813 l 19.63282,19.761718 c 2.60156,2.601563 4.55078,5.527344 5.85156,8.777344 1.29687,3.25 1.94922,6.609375 1.94922,10.074219 0,3.121093 -0.54297,6.21875 -1.625,9.296875 -1.08594,3.078125 -2.75391,5.871094 -5.00782,8.386718 l 30.6875,30.683598 z m 4.8125,-67.609379 c -5.02734,0 -9.32031,-1.777343 -12.87109,-5.332031 -3.55469,-3.550781 -5.33203,-7.84375 -5.33203,-12.871094 0,-5.027344 1.77734,-9.316406 5.33203,-12.871094 3.55078,-3.554687 7.84375,-5.332031 12.87109,-5.332031 5.02735,0 9.31641,1.777344 12.8711,5.332031 3.55468,3.554688 5.33203,7.84375 5.33203,12.871094 0,5.027344 -1.77735,9.320313 -5.33203,12.871094 -3.55469,3.554688 -7.84375,5.332031 -12.8711,5.332031 z m 0,-10.402343 c 2.16797,0 4.00781,-0.757813 5.52344,-2.273438 1.51953,-1.515625 2.27734,-3.359375 2.27734,-5.527344 0,-2.164062 -0.75781,-4.007812 -2.27734,-5.523437 -1.51563,-1.519531 -3.35547,-2.277344 -5.52344,-2.277344 -2.16797,0 -4.00781,0.757813 -5.52734,2.277344 -1.51563,1.515625 -2.27344,3.359375 -2.27344,5.523437 0,2.167969 0.75781,4.011719 2.27344,5.527344 1.51953,1.515625 3.35937,2.273438 5.52734,2.273438 z m 0,-7.800782 z M 346.01172,62.375 Z m 0,0"
     fill-opacity="1"
     fill-rule="nonzero"
     id="path30" />
</svg>
